<svg width="16" height="16" viewBox="0 0 16 16" fill="none" xmlns="http://www.w3.org/2000/svg">
<rect x="9.01379" y="8.88089" width="6.12817" height="6.12817" rx="1" fill="#6088F0" fill-opacity="0.2" stroke="#6088F0"/>
<path fill-rule="evenodd" clip-rule="evenodd" d="M2.12184 1.41449C1.29841 1.41449 0.628924 2.07828 0.621891 2.90168L0.54702 11.6667C0.539902 12.5001 1.21353 13.1795 2.04697 13.1795H7.81781V12.1795H2.04697C1.76915 12.1795 1.54461 11.9531 1.54698 11.6753L1.62185 2.91022C1.6242 2.63575 1.84736 2.41449 2.12184 2.41449H5.77667C5.90928 2.41449 6.03646 2.46717 6.13023 2.56094L7.38462 3.81533C7.66592 4.09663 8.04746 4.25467 8.44528 4.25467H13.1957C13.4718 4.25467 13.6957 4.47853 13.6957 4.75467V7.6546H14.6957V4.75467C14.6957 3.92624 14.0241 3.25467 13.1957 3.25467H8.44528C8.31267 3.25467 8.18549 3.20199 8.09173 3.10822L6.83734 1.85383C6.55603 1.57252 6.1745 1.41449 5.77667 1.41449H2.12184Z" fill="#6D707D"/>
</svg>
