<svg width="16" height="16" viewBox="0 0 16 16" fill="none" xmlns="http://www.w3.org/2000/svg">
<rect x="9.01379" y="8.88089" width="6.12817" height="6.12817" rx="1" fill="#6088F0" fill-opacity="0.2" stroke="#6088F0"/>
<path fill-rule="evenodd" clip-rule="evenodd" d="M2.12187 1.41449C1.29844 1.41449 0.628957 2.07828 0.621923 2.90168L0.547053 11.6667C0.539934 12.5001 1.21356 13.1795 2.047 13.1795H7.81784V12.1795H2.047C1.76919 12.1795 1.54464 11.9531 1.54702 11.6753L1.62189 2.91022C1.62423 2.63575 1.84739 2.41449 2.12187 2.41449H5.77671C5.90932 2.41449 6.03649 2.46717 6.13026 2.56094L7.38465 3.81533C7.66596 4.09663 8.04749 4.25467 8.44531 4.25467H13.1957C13.4718 4.25467 13.6957 4.47853 13.6957 4.75467V7.6546H14.6957V4.75467C14.6957 3.92624 14.0241 3.25467 13.1957 3.25467H8.44531C8.31271 3.25467 8.18553 3.20199 8.09176 3.10822L6.83737 1.85383C6.55606 1.57252 6.17453 1.41449 5.77671 1.41449H2.12187Z" fill="white"/>
</svg>
